<svg width="24" height="24" viewBox="0 0 24 24" fill="none" xmlns="http://www.w3.org/2000/svg">
    <path
        d="M7 18C6.71667 18 6.479 17.904 6.287 17.712C6.095 17.52 5.99934 17.2827 6 17V7C6 6.71667 6.096 6.479 6.288 6.287C6.48 6.095 6.71734 5.99934 7 6C7.28334 6 7.521 6.096 7.713 6.288C7.905 6.48 8.00067 6.71734 8 7V17C8 17.2833 7.904 17.521 7.712 17.713C7.52 17.905 7.28267 18.0007 7 18ZM13.8 12L17.7 15.9C17.8833 16.0833 17.975 16.3167 17.975 16.6C17.975 16.8833 17.8833 17.1167 17.7 17.3C17.5167 17.4833 17.2833 17.575 17 17.575C16.7167 17.575 16.4833 17.4833 16.3 17.3L11.7 12.7C11.6 12.6 11.5293 12.4917 11.488 12.375C11.4467 12.2583 11.4257 12.1333 11.425 12C11.425 11.8667 11.446 11.7417 11.488 11.625C11.53 11.5083 11.6007 11.4 11.7 11.3L16.3 6.7C16.4833 6.51667 16.7167 6.425 17 6.425C17.2833 6.425 17.5167 6.51667 17.7 6.7C17.8833 6.88334 17.975 7.11667 17.975 7.4C17.975 7.68334 17.8833 7.91667 17.7 8.1L13.8 12Z"
        fill="currentColor" />
</svg>