<svg width="36" height="36" viewBox="0 0 36 36" fill="none" xmlns="http://www.w3.org/2000/svg">
<path d="M22.5 10.5C24.1569 10.5 25.5 11.8431 25.5 13.5M31.5 13.5C31.5 18.4706 27.4706 22.5 22.5 22.5C21.5907 22.5 20.713 22.3652 19.8856 22.1144L16.5 25.5H13.5V28.5H10.5V31.5H6C5.17157 31.5 4.5 30.8284 4.5 30V26.1213C4.5 25.7235 4.65803 25.342 4.93934 25.0607L13.8856 16.1144C13.6348 15.287 13.5 14.4093 13.5 13.5C13.5 8.52944 17.5294 4.5 22.5 4.5C27.4706 4.5 31.5 8.52944 31.5 13.5Z" stroke="#111827" stroke-width="2" stroke-linecap="round" stroke-linejoin="round"/>
</svg>
